<svg width="32" height="32" fill="none" xmlns="http://www.w3.org/2000/svg">
  <g fill="#99A9CD">
    <path d="M3.895 4.143a1.574 1.574 0 0 0-.5.408c-.357.492-.424 1.013-.385 3.21.028 1.8.048 2.123.211 2.435.212.426.607.72 1.069.796l.337.057V6.284h22.238v2.368c0 2.32 0 2.368.193 2.368.385 0 .914-.35 1.155-.767.24-.417.24-.436.24-2.69 0-2.245 0-2.283-.24-2.738-.462-.89.684-.814-12.467-.814-9.482.01-11.61.028-11.85.132Z"/>
    <path d="m7.053 18.39.029 9.652s0 .252.266.424c.266.173.11.56 8.533.532 7.557-.028 7.605-.028 7.875-.227.144-.114.356-.34.462-.52.192-.313.192-.512.221-9.918l.02-9.586H7.034l.019 9.643Zm10.407-5.144c.78.161 1.713.635 2.06 1.033.135.16.366.53.5.814.328.701.347 2.046.03 2.842-.53 1.336-2.013 2.074-4.13 2.084h-.8v.947h2.311v1.516H15.12V24.47h-2.31V22.482h-1.454l.03-.74.028-.729.703-.028.693-.028v-.938h-1.444v-1.8h1.444v-5.115h2.002c1.358 0 2.205.048 2.648.142Z"/>
    <path d="M15.12 16.561v1.687l.8-.048c.885-.047 1.299-.218 1.646-.672.163-.218.202-.408.202-.966 0-.56-.039-.749-.202-.967-.347-.454-.76-.625-1.647-.672l-.799-.047v1.685Z"/>
  </g>
</svg>
