<svg width="32" height="32" viewBox="0 0 32 32" fill="none" xmlns="http://www.w3.org/2000/svg">
<g id="Frame 320">
<g id="Black">
<path id="Vector" d="M15.8244 3.05488C15.6411 3.10129 14.3464 3.61177 12.9601 4.19185C11.5738 4.76033 8.89283 5.8741 7.00241 6.65141C5.11198 7.42872 3.47361 8.14803 3.3705 8.24084C3.25593 8.34526 3.11844 8.58889 3.0497 8.79772C2.8893 9.2966 3.1299 9.93469 3.58818 10.1667C3.76004 10.2595 5.89106 11.1529 8.31997 12.1622C10.7489 13.16 13.4184 14.2621 14.2433 14.6102C15.389 15.0858 15.9046 15.2367 16.34 15.2367C16.8326 15.2367 17.7148 14.9118 21.8738 13.1948C29.699 9.95789 29.3094 10.1435 29.55 9.64465C29.7219 9.28499 29.7448 9.13417 29.6302 8.80932C29.5615 8.60049 29.424 8.34526 29.3094 8.24084C29.2063 8.14803 27.5679 7.42872 25.6775 6.65141C23.7871 5.86249 21.0603 4.74873 19.6282 4.15705C16.9472 3.04328 16.4202 2.89246 15.8244 3.05488Z" fill="#99A9CD"/>
<path id="Vector_2" d="M5.05527 14.8305C3.31378 15.573 2.99298 15.8399 3.00444 16.536C3.0159 16.9188 3.0961 17.0928 3.34816 17.3249C3.85227 17.7773 15.7333 22.6617 16.3405 22.6617C16.6842 22.6617 17.9216 22.2092 20.9005 20.9678C30.2495 17.116 29.6652 17.4061 29.6652 16.5128C29.6652 15.8051 29.3329 15.5498 27.5112 14.7841C26.228 14.2504 25.9874 14.1808 25.6781 14.2852C25.4948 14.3432 23.6387 15.1089 21.5535 15.9675C19.3996 16.8608 17.4633 17.5917 17.0623 17.6729C16.0083 17.8586 15.2521 17.6845 12.7888 16.6636C11.6202 16.1763 9.80997 15.4222 8.74446 14.9929C7.6904 14.5521 6.76238 14.1924 6.68218 14.1924C6.61344 14.204 5.88018 14.4825 5.05527 14.8305Z" fill="#99A9CD"/>
<path id="Vector_3" d="M5.45441 22.0356C3.38067 22.9173 3.27756 22.9753 3.09424 23.4278C2.89947 23.8918 3.01404 24.4719 3.36921 24.7852C3.47233 24.878 5.21381 25.6437 7.23026 26.4674C9.24672 27.3027 11.985 28.4397 13.3025 28.985C16.2356 30.2148 16.4189 30.238 18.0572 29.5303C18.653 29.275 20.383 28.5673 21.8954 27.9408C28.1395 25.3652 29.1248 24.9476 29.3081 24.7852C29.6633 24.4719 29.7779 23.8918 29.5831 23.4394C29.3883 22.9637 29.3654 22.9405 27.4406 22.14L25.9856 21.5251L21.7579 23.2769L17.5417 25.0404H16.3387H15.1357L11.0111 23.3117C8.7426 22.372 6.84072 21.5831 6.77198 21.5599C6.71469 21.5367 6.11892 21.7455 5.45441 22.0356Z" fill="#99A9CD"/>
</g>
</g>
</svg>
