<svg width="32" height="32" fill="none" xmlns="http://www.w3.org/2000/svg">
  <g clip-path="url(#a)">
    <path d="M24.41 16.626c.048-.36.072-.73.072-1.126 0-.383-.024-.767-.083-1.126l2.391-1.893a.594.594 0 0 0 .142-.73L24.67 7.773c-.141-.263-.436-.347-.695-.263L21.16 8.66a8.29 8.29 0 0 0-1.909-1.126l-.424-3.043A.573.573 0 0 0 18.262 4h-4.524c-.282 0-.506.204-.553.491l-.425 3.043a8.472 8.472 0 0 0-1.908 1.126L8.037 7.51a.558.558 0 0 0-.695.263l-2.25 3.978c-.141.251-.094.563.141.73l2.392 1.893c-.06.36-.106.755-.106 1.126 0 .371.023.767.082 1.126L5.21 18.519a.594.594 0 0 0-.142.73l2.262 3.978c.141.263.436.347.695.263l2.815-1.15a8.29 8.29 0 0 0 1.909 1.126l.424 3.043c.059.287.283.491.565.491h4.524a.553.553 0 0 0 .553-.491l.424-3.043a8.048 8.048 0 0 0 1.909-1.126l2.815 1.15c.26.096.554 0 .695-.263l2.262-3.977c.141-.264.082-.564-.142-.731l-2.367-1.893ZM16 19.812c-2.332 0-4.24-1.94-4.24-4.312 0-2.372 1.908-4.313 4.24-4.313 2.332 0 4.24 1.941 4.24 4.313s-1.908 4.313-4.24 4.313Z" fill="#fff"/>
  </g>
  <defs>
    <clipPath id="a">
      <path fill="#fff" d="M0 0h32v32H0z"/>
    </clipPath>
  </defs>
</svg>
