<svg width="18" height="18" fill="none" xmlns="http://www.w3.org/2000/svg">
  <g clip-path="url(#a)" fill="#99A9CD">
    <path d="M8.992 2.5C4.853 2.5 1.5 5.86 1.5 10c0 4.14 3.353 7.5 7.492 7.5 4.148 0 7.508-3.36 7.508-7.5 0-4.14-3.36-7.5-7.508-7.5ZM9 16c-3.315 0-6-2.685-6-6s2.685-6 6-6 6 2.685 6 6-2.685 6-6 6Z"/>
    <path d="M9.375 6.25H8.25v4.5l3.938 2.363.562-.923-3.375-2.002V6.25Z"/>
  </g>
  <defs>
    <clipPath id="a">
      <path fill="#fff" d="M0 0h18v18H0z"/>
    </clipPath>
  </defs>
</svg>
