<svg width="18" height="18" fill="none" xmlns="http://www.w3.org/2000/svg">
  <g clip-path="url(#a)">
    <g fill="#99A9CD">
      <path d="M6.75 6.75 4.5 9 3 8.625l-1.5-3-.375-2.25L3.375 1.5l2.25.375 1.5 1.5L6.75 6.75ZM16.125 13.875l-2.25 2.25L12 15l-1.125-1.875V10.5l2.25-1.875L15.75 9l1.125 1.875-.75 3Z"/>
    </g>
    <path d="M3.516.935C2.322 1.21 1.341 2.188.954 3.501c-.185.63-.219 1.696-.068 2.282.286 1.105 1.105 2.342 2.367 3.578.802.788.617.728 2.327.76l1.458.028.263.153c.376.213.578.564.578.996-.006.36-.09.569-.348.815-.33.328-.342.328-2.792.361l-2.243.027-.326.148c-.454.208-.953.69-1.177 1.133-.168.344-.18.394-.18.99s.012.646.18.99c.224.443.723.925 1.177 1.133l.326.148 5.787.016 5.787.01.325-.262c.88-.716 1.98-2.057 2.456-2.992.443-.87.555-1.346.516-2.244-.034-.831-.124-1.181-.466-1.87-.577-1.172-1.727-1.877-3.05-1.877-.993 0-1.688.284-2.389.957-.796.771-1.155 1.702-1.16 3.01-.006.661.005.743.173 1.214.303.859.718 1.554 1.458 2.434l.404.482H7.615c-4.48 0-4.738-.006-4.951-.104-.768-.35-.937-1.313-.325-1.877.33-.306.398-.317 2.529-.317 1.076 0 2.097-.027 2.26-.055 1.278-.235 2.175-1.515 1.906-2.73a2.411 2.411 0 0 0-1.806-1.805c-.134-.033-.51-.06-.824-.06h-.583l.174-.208c.987-1.15 1.486-1.975 1.76-2.911.163-.564.163-1.526-.01-2.188-.36-1.407-1.296-2.391-2.558-2.709C4.823.87 3.87.853 3.517.935Zm1.47 1.177c.93.251 1.541 1.1 1.693 2.347.05.405.045.569-.028.903-.18.837-.836 1.887-1.8 2.883-.6.624-.477.635-1.189-.137-1.16-1.27-1.699-2.325-1.699-3.299.006-1.335.667-2.39 1.7-2.703.324-.104.952-.098 1.322.006Zm9.448 6.943c1.105.279 1.772 1.318 1.772 2.763 0 .372-.034.558-.163.913-.274.772-.897 1.68-1.727 2.533l-.46.465-.37-.355c-.897-.86-1.598-1.877-1.912-2.79-.207-.602-.078-1.762.264-2.419.157-.3.577-.733.886-.908.493-.279 1.11-.356 1.71-.202Z" fill="#99A9CD"/>
    <path d="M4.064 3.239c-.258.137-.308.263-.308.793 0 .46.011.514.146.668.269.312.757.257.947-.104.112-.214.112-.881 0-1.094-.157-.301-.504-.416-.785-.263ZM13.559 10.209c-.236.12-.326.345-.326.804 0 .329.023.438.13.591.218.317.644.35.913.066.124-.126.135-.192.135-.624 0-.563-.062-.722-.308-.842-.23-.104-.348-.104-.544.005Z" fill="#fff"/>
  </g>
  <defs>
    <clipPath id="a">
      <path fill="#fff" d="M0 0h18v18H0z"/>
    </clipPath>
  </defs>
</svg>
