<svg width="35" height="67" fill="none" xmlns="http://www.w3.org/2000/svg">
  <path d="M7.362 16.023c-.277.115-1.122.935-1.87 1.82C2.86 20.957 0 24.43 0 24.546c0 .18 6.305 7.704 6.842 8.163.65.557.91.606 2.86.557l1.641-.05-2.828-3.392c-1.56-1.885-2.827-3.442-2.827-3.491 0-.05 4.859-.082 10.806-.082h10.807v-3.278l-10.904-.033-10.888-.05 2.73-3.294a706.349 706.349 0 0 1 2.958-3.556c.195-.262.097-.279-1.544-.262-1.121 0-1.966.098-2.291.245Zm16.202 17.505c0 .033 1.267 1.606 2.827 3.491l2.828 3.41-10.79.048-10.791.033v3.278H18.46c6.338 0 10.79.066 10.758.148-.016.082-1.349 1.704-2.925 3.606L23.4 51h1.771c1.512 0 1.853-.05 2.422-.377.487-.262 1.625-1.508 3.997-4.376 2.78-3.344 3.3-4.048 3.137-4.262-.114-.13-1.641-1.983-3.397-4.097-2.226-2.704-3.38-3.95-3.786-4.147-.439-.213-1.008-.279-2.275-.279-.943 0-1.706.033-1.706.066Z" fill="#1E4BD2"/>
</svg>
