<svg width="32" height="32" fill="none" xmlns="http://www.w3.org/2000/svg">
  <g fill="#99A9CD">
    <path d="M14.821 3.59c-.768.186-1.496.811-1.932 1.663-.371.732-.397.878-.397 2.248 0 1.41.013 1.517.41 2.209.556.984 1.324 1.463 2.475 1.556 2.052.173 3.39-1.037 3.614-3.273.093-.851-.106-2.221-.423-2.833-.65-1.264-2.224-1.93-3.747-1.57ZM14.848 13.315c-2.41.4-3.76 2.222-4.077 5.468l-.093.904h9.994l-.079-1.237c-.185-3.073-1.734-4.909-4.395-5.188-.357-.027-.98-.014-1.35.053ZM3.08 22.095c.158.812.966 1.584 1.654 1.584.265 0 .278.093.305 2.62l.04 2.634 10.748.04L26.59 29v-5.162l.622-.306c.675-.346 1.231-1.024 1.231-1.53v-.319H3l.08.412Z"/>
  </g>
</svg>
