<svg width="32" height="32" fill="none" xmlns="http://www.w3.org/2000/svg">
  <path d="M15.5 3C8.598 3 3 8.598 3 15.5S8.598 28 15.5 28 28 22.402 28 15.5 22.402 3 15.5 3Zm5.96 8.13c-.038.505-.324 2.275-.61 4.19-.437 2.712-.905 5.673-.905 5.673s-.075.829-.685.972c-.61.143-1.628-.505-1.809-.648-.143-.106-2.712-1.733-3.646-2.532-.256-.218-.543-.648.037-1.153a131.645 131.645 0 0 0 3.79-3.609c.437-.437.867-1.446-.942-.218-2.561 1.77-5.093 3.428-5.093 3.428s-.58.362-1.665.038a69.037 69.037 0 0 1-2.35-.761s-.867-.543.617-1.123c0 0 6.246-2.562 8.416-3.466.829-.362 3.647-1.514 3.647-1.514s1.303-.505 1.198.723Z" fill="#fff"/>
</svg>
